<?xml version="1.0" encoding="utf-8"?>
<svg id="svg2321" version="1.1" viewBox="-0.233 4.925 43.478 30.741" height="36.62384mm" width="146.71918mm" xmlns="http://www.w3.org/2000/svg" xmlns:bx="https://boxy-svg.com" preserveAspectRatio="none"><defs id="defs2315"><bx:export><bx:file format="png" path="bird.png"><bx:variant scale="100" suffix="x100"/></bx:file><bx:file format="svg" units="mm" path="bird.svg"/></bx:export></defs><g transform="matrix(0.906869, 0.421412, -0.421412, 0.906869, -33.379555, -123.866226)" id="layer1" style="transform-origin: 52.7513px 142.178px;"><g id="g1911-8-3-9-3-2-8" transform="translate(-517.96199,-278.01119)" style="opacity:1;fill:#787878;fill-opacity:1;stroke-width:0.755906;stroke-miterlimit:4;stroke-dasharray:none"/><g id="g1051-1-2-0-8-6-0-8-1-5-6-9-6-8-9" transform="matrix(-0.45399624,0.36689705,0.36689705,0.45399624,73.527335,10.816805)" style="opacity:1;fill:#ececec;fill-opacity:1;stroke:none;stroke-width:0.755906;stroke-miterlimit:4;stroke-dasharray:none;stroke-opacity:1"><g id="g3029-3-9-3" transform="matrix(-0.35254083,0.28490586,0.28490586,0.35254083,477.11004,-1021.7666)" style="opacity:1;fill:#ececec;fill-opacity:1"><path id="path3031-2-2-9" style="color: rgb(0, 0, 0); font-style: normal; font-variant: normal; font-weight: normal; font-stretch: normal; font-size: medium; line-height: normal; font-family: sans-serif; font-feature-settings: normal; font-variation-settings: normal; text-indent: 0px; text-align: start; text-decoration: none solid rgb(0, 0, 0); letter-spacing: normal; word-spacing: normal; text-transform: none; writing-mode: lr-tb; direction: ltr; text-orientation: mixed; dominant-baseline: auto; baseline-shift: baseline; text-anchor: start; white-space: normal; shape-margin: 0px; inline-size: 0px; clip-rule: nonzero; display: inline; overflow: visible; visibility: visible; isolation: auto; mix-blend-mode: normal; color-interpolation: srgb; color-interpolation-filters: linearrgb; vector-effect: none; fill-opacity: 1; fill-rule: nonzero; stroke: none; stroke-width: 3.02362; stroke-linecap: butt; stroke-linejoin: miter; stroke-miterlimit: 4; stroke-dasharray: none; stroke-dashoffset: 0; stroke-opacity: 1; color-rendering: auto; image-rendering: auto; shape-rendering: auto; text-rendering: auto; stop-color: rgb(0, 0, 0); stop-opacity: 1;" d="m 2191.1465,2276.7832 c -5.9729,-0.035 -12.0979,2.348 -17.3613,7.459 -6.9129,6.7127 -9.0602,12.7555 -7.8477,20.2949 l 0.332,2.0684 -2.0664,-0.336 c -15.1877,-2.4609 -33.9847,-1.2178 -55.3711,7.4336 6.2868,2.6948 17.8259,7.1926 30.6309,13.3418 l 4.0605,1.9512 -4.414,0.8945 c -16.9087,3.4274 -36.9729,13.3275 -55.2989,34.9336 8.1981,-0.6372 24.9531,-2.6089 42.4278,-2.582 9.7138,0.015 19.2869,0.687 27.0859,2.709 7.7991,2.022 14.8874,6.6498 15.8861,10.0406 0.9987,3.3908 0.432,5.1761 -0.5519,7.8285 -0.9839,2.6524 -4.0098,6.6817 -8.1953,9.3418 -4.1855,2.6601 -9.4961,4.9849 -15.0137,6.9609 -11.0352,3.9521 -22.7798,6.4773 -27.9648,6.959 -1.1021,0.1024 -1.5421,0.4983 -1.9668,1.2696 -0.4247,0.7712 -0.659,1.9824 -0.6934,3.25 -0.046,1.6926 0.217,2.576 0.6949,3.246 0.4779,0.67 1.2243,0.9381 1.9934,0.9902 32.5822,2.2052 56.9441,-5.9907 74.6379,-13.0116 20.3508,-9.3311 33.2134,-27.7577 36.0058,-44.3477 1.7499,-10.395 1.3746,-15.4894 -0.3124,-19.8281 -1.6873,-4.3387 -4.9223,-8.1914 -9.0254,-15.5488 -2.6368,-4.7281 -4.1077,-9.367 -5.0196,-13.6875 l -0.1933,-0.9102 0.7265,-0.582 c 7.5403,-6.0446 13.6809,-12.6444 15.9102,-17.4492 -4.5742,-4.8648 -12.4787,-5.893 -21.3223,-4.9473 l -0.7265,0.076 -0.5118,-0.5215 c -4.7125,-4.8006 -10.5615,-7.2614 -16.5351,-7.2969 z m 2.6484,11.2324 c 2.593,-0.041 4.8808,1.7566 5.502,4.3223 0.7307,3.0216 -1.0812,6.0525 -4.0469,6.7695 -2.9656,0.7176 -5.9625,-1.1502 -6.6934,-4.1719 -0.7307,-3.0216 1.0812,-6.0525 4.0469,-6.7695 0.3902,-0.094 0.7897,-0.1445 1.1914,-0.1504 z" transform="translate(5.0092774e-5,-757.87625)"/></g></g></g></svg>